<mxfile host="app.diagrams.net" modified="2024-06-19T09:29:54.150Z" agent="Mozilla/5.0 (Windows NT 10.0; Win64; x64) AppleWebKit/537.36 (KHTML, like Gecko) Chrome/124.0.0.0 Safari/537.36 Edg/124.0.0.0" etag="stUcu49MF_z15HOtD-Jr" version="24.5.5" type="github">
  <diagram name="第 1 页" id="CBgy8XKLXbL9gpVcDCWg">
    <mxGraphModel dx="1042" dy="535" grid="1" gridSize="10" guides="1" tooltips="1" connect="1" arrows="1" fold="1" page="1" pageScale="1" pageWidth="827" pageHeight="1169" math="0" shadow="0">
      <root>
        <mxCell id="0" />
        <mxCell id="1" parent="0" />
        <mxCell id="3YgHPc-BPCz4BCIq1_Qo-1" value="" style="rounded=1;whiteSpace=wrap;html=1;dashed=1;" vertex="1" parent="1">
          <mxGeometry x="142.25" y="190" width="437.5" height="515" as="geometry" />
        </mxCell>
        <mxCell id="m918uEz0bu5owm2fi5b8-63" value="" style="rounded=1;whiteSpace=wrap;html=1;dashed=1;" parent="1" vertex="1">
          <mxGeometry x="222" y="210" width="278" height="60" as="geometry" />
        </mxCell>
        <mxCell id="m918uEz0bu5owm2fi5b8-34" value="" style="rounded=1;whiteSpace=wrap;html=1;dashed=1;" parent="1" vertex="1">
          <mxGeometry x="222" y="310" width="280" height="200" as="geometry" />
        </mxCell>
        <mxCell id="m918uEz0bu5owm2fi5b8-65" style="edgeStyle=orthogonalEdgeStyle;rounded=0;orthogonalLoop=1;jettySize=auto;html=1;" parent="1" source="m918uEz0bu5owm2fi5b8-32" target="m918uEz0bu5owm2fi5b8-31" edge="1">
          <mxGeometry relative="1" as="geometry" />
        </mxCell>
        <mxCell id="m918uEz0bu5owm2fi5b8-32" value="处理连接" style="rounded=1;whiteSpace=wrap;html=1;fillColor=#dae8fc;strokeColor=#6c8ebf;" parent="1" vertex="1">
          <mxGeometry x="310" y="220" width="104" height="40" as="geometry" />
        </mxCell>
        <mxCell id="m918uEz0bu5owm2fi5b8-48" style="edgeStyle=orthogonalEdgeStyle;rounded=0;orthogonalLoop=1;jettySize=auto;html=1;exitX=0.5;exitY=1;exitDx=0;exitDy=0;" parent="1" source="m918uEz0bu5owm2fi5b8-29" target="m918uEz0bu5owm2fi5b8-26" edge="1">
          <mxGeometry relative="1" as="geometry" />
        </mxCell>
        <mxCell id="m918uEz0bu5owm2fi5b8-29" value="查询优化" style="rounded=1;whiteSpace=wrap;html=1;fillColor=#dae8fc;strokeColor=#6c8ebf;" parent="1" vertex="1">
          <mxGeometry x="324" y="450" width="76" height="40" as="geometry" />
        </mxCell>
        <mxCell id="m918uEz0bu5owm2fi5b8-46" style="edgeStyle=orthogonalEdgeStyle;rounded=0;orthogonalLoop=1;jettySize=auto;html=1;exitX=0.5;exitY=1;exitDx=0;exitDy=0;" parent="1" source="m918uEz0bu5owm2fi5b8-30" target="m918uEz0bu5owm2fi5b8-29" edge="1">
          <mxGeometry relative="1" as="geometry" />
        </mxCell>
        <mxCell id="m918uEz0bu5owm2fi5b8-30" value="语法解析" style="rounded=1;whiteSpace=wrap;html=1;fillColor=#dae8fc;strokeColor=#6c8ebf;" parent="1" vertex="1">
          <mxGeometry x="324" y="390" width="76" height="40" as="geometry" />
        </mxCell>
        <mxCell id="m918uEz0bu5owm2fi5b8-45" style="edgeStyle=orthogonalEdgeStyle;rounded=0;orthogonalLoop=1;jettySize=auto;html=1;exitX=0.5;exitY=1;exitDx=0;exitDy=0;" parent="1" source="m918uEz0bu5owm2fi5b8-31" target="m918uEz0bu5owm2fi5b8-30" edge="1">
          <mxGeometry relative="1" as="geometry" />
        </mxCell>
        <mxCell id="m918uEz0bu5owm2fi5b8-31" value="查询缓存" style="rounded=1;whiteSpace=wrap;html=1;fillColor=#dae8fc;strokeColor=#6c8ebf;" parent="1" vertex="1">
          <mxGeometry x="324" y="330" width="76" height="40" as="geometry" />
        </mxCell>
        <mxCell id="m918uEz0bu5owm2fi5b8-61" value="" style="edgeStyle=orthogonalEdgeStyle;rounded=0;orthogonalLoop=1;jettySize=auto;html=1;" parent="1" source="m918uEz0bu5owm2fi5b8-26" target="m918uEz0bu5owm2fi5b8-60" edge="1">
          <mxGeometry relative="1" as="geometry" />
        </mxCell>
        <mxCell id="m918uEz0bu5owm2fi5b8-26" value="" style="rounded=1;whiteSpace=wrap;html=1;dashed=1;labelBackgroundColor=none;" parent="1" vertex="1">
          <mxGeometry x="222" y="585" width="280" height="80" as="geometry" />
        </mxCell>
        <mxCell id="m918uEz0bu5owm2fi5b8-21" value="MyISAM" style="strokeWidth=2;html=1;shape=mxgraph.flowchart.database;whiteSpace=wrap;fillColor=#dae8fc;strokeColor=#6c8ebf;" parent="1" vertex="1">
          <mxGeometry x="230" y="610" width="60" height="40" as="geometry" />
        </mxCell>
        <mxCell id="m918uEz0bu5owm2fi5b8-22" value="InnoDB" style="strokeWidth=2;html=1;shape=mxgraph.flowchart.database;whiteSpace=wrap;fillColor=#dae8fc;strokeColor=#6c8ebf;" parent="1" vertex="1">
          <mxGeometry x="332" y="610" width="60" height="40" as="geometry" />
        </mxCell>
        <mxCell id="m918uEz0bu5owm2fi5b8-27" value="Memory" style="strokeWidth=2;html=1;shape=mxgraph.flowchart.database;whiteSpace=wrap;fillColor=#dae8fc;strokeColor=#6c8ebf;" parent="1" vertex="1">
          <mxGeometry x="430" y="610" width="60" height="40" as="geometry" />
        </mxCell>
        <mxCell id="m918uEz0bu5owm2fi5b8-64" style="edgeStyle=orthogonalEdgeStyle;rounded=0;orthogonalLoop=1;jettySize=auto;html=1;entryX=0.5;entryY=0;entryDx=0;entryDy=0;" parent="1" source="m918uEz0bu5owm2fi5b8-44" target="m918uEz0bu5owm2fi5b8-32" edge="1">
          <mxGeometry relative="1" as="geometry" />
        </mxCell>
        <mxCell id="m918uEz0bu5owm2fi5b8-44" value="客户端" style="rounded=1;whiteSpace=wrap;html=1;fillColor=#dae8fc;strokeColor=#6c8ebf;" parent="1" vertex="1">
          <mxGeometry x="310" y="135" width="104" height="40" as="geometry" />
        </mxCell>
        <mxCell id="m918uEz0bu5owm2fi5b8-60" value="文件系统" style="whiteSpace=wrap;html=1;rounded=1;labelBackgroundColor=none;fillColor=#dae8fc;strokeColor=#6c8ebf;" parent="1" vertex="1">
          <mxGeometry x="302" y="730" width="120" height="60" as="geometry" />
        </mxCell>
        <mxCell id="3YgHPc-BPCz4BCIq1_Qo-15" value="第1部分：连接管理" style="whiteSpace=wrap;html=1;rounded=1;arcSize=0;align=center;verticalAlign=middle;strokeWidth=1;autosize=1;spacing=4;treeFolding=1;treeMoving=1;newEdgeStyle={&quot;edgeStyle&quot;:&quot;entityRelationEdgeStyle&quot;,&quot;startArrow&quot;:&quot;none&quot;,&quot;endArrow&quot;:&quot;none&quot;,&quot;segment&quot;:10,&quot;curved&quot;:1,&quot;sourcePerimeterSpacing&quot;:0,&quot;targetPerimeterSpacing&quot;:0};fillColor=#d5e8d4;strokeColor=#82b366;" vertex="1" collapsed="1" parent="1">
          <mxGeometry x="625" y="220" width="150" height="30" as="geometry" />
        </mxCell>
        <mxCell id="3YgHPc-BPCz4BCIq1_Qo-16" value="" style="edgeStyle=entityRelationEdgeStyle;startArrow=none;endArrow=none;segment=10;curved=1;sourcePerimeterSpacing=0;targetPerimeterSpacing=0;rounded=0;" edge="1" target="3YgHPc-BPCz4BCIq1_Qo-15" parent="1">
          <mxGeometry relative="1" as="geometry">
            <mxPoint x="500" y="270" as="sourcePoint" />
            <Array as="points">
              <mxPoint x="550" y="220" />
            </Array>
          </mxGeometry>
        </mxCell>
        <mxCell id="3YgHPc-BPCz4BCIq1_Qo-17" value="第二部分：解析与优化" style="whiteSpace=wrap;html=1;rounded=1;arcSize=0;align=center;verticalAlign=middle;strokeWidth=1;autosize=1;spacing=4;treeFolding=1;treeMoving=1;newEdgeStyle={&quot;edgeStyle&quot;:&quot;entityRelationEdgeStyle&quot;,&quot;startArrow&quot;:&quot;none&quot;,&quot;endArrow&quot;:&quot;none&quot;,&quot;segment&quot;:10,&quot;curved&quot;:1,&quot;sourcePerimeterSpacing&quot;:0,&quot;targetPerimeterSpacing&quot;:0};fillColor=#d5e8d4;strokeColor=#82b366;" vertex="1" parent="1">
          <mxGeometry x="610" y="360" width="160" height="30" as="geometry" />
        </mxCell>
        <mxCell id="3YgHPc-BPCz4BCIq1_Qo-18" value="" style="edgeStyle=entityRelationEdgeStyle;startArrow=none;endArrow=none;segment=10;curved=1;sourcePerimeterSpacing=0;targetPerimeterSpacing=0;rounded=0;" edge="1" target="3YgHPc-BPCz4BCIq1_Qo-17" parent="1">
          <mxGeometry relative="1" as="geometry">
            <mxPoint x="505" y="404" as="sourcePoint" />
          </mxGeometry>
        </mxCell>
        <mxCell id="3YgHPc-BPCz4BCIq1_Qo-19" value="第三部分：存储引擎" style="whiteSpace=wrap;html=1;rounded=1;arcSize=0;align=center;verticalAlign=middle;strokeWidth=1;autosize=1;spacing=4;treeFolding=1;treeMoving=1;newEdgeStyle={&quot;edgeStyle&quot;:&quot;entityRelationEdgeStyle&quot;,&quot;startArrow&quot;:&quot;none&quot;,&quot;endArrow&quot;:&quot;none&quot;,&quot;segment&quot;:10,&quot;curved&quot;:1,&quot;sourcePerimeterSpacing&quot;:0,&quot;targetPerimeterSpacing&quot;:0};fillColor=#d5e8d4;strokeColor=#82b366;" vertex="1" parent="1">
          <mxGeometry x="615" y="580" width="150" height="30" as="geometry" />
        </mxCell>
        <mxCell id="3YgHPc-BPCz4BCIq1_Qo-20" value="" style="edgeStyle=entityRelationEdgeStyle;startArrow=none;endArrow=none;segment=10;curved=1;sourcePerimeterSpacing=0;targetPerimeterSpacing=0;rounded=0;" edge="1" target="3YgHPc-BPCz4BCIq1_Qo-19" parent="1">
          <mxGeometry relative="1" as="geometry">
            <mxPoint x="505" y="625" as="sourcePoint" />
          </mxGeometry>
        </mxCell>
      </root>
    </mxGraphModel>
  </diagram>
</mxfile>
